<?xml version="1.0" encoding="utf-8"?>
<!-- Generator: Adobe Illustrator 19.2.0, SVG Export Plug-In . SVG Version: 6.00 Build 0)  -->
<svg version="1.1" id="Layer_1" xmlns="http://www.w3.org/2000/svg" xmlns:xlink="http://www.w3.org/1999/xlink" x="0px" y="0px"
	 viewBox="0 0 297.1 38.2" style="enable-background:new 0 0 297.1 38.2;" xml:space="preserve">
<style type="text/css">
	.st0{fill:#FFFFFF;}
</style>
<text transform="matrix(1 0 0 1 -246.918 -361.7444)" style="font-family:'MyriadPro-Regular'; font-size:12px;">t</text>
<rect x="-285.9" y="-316.7" style="fill:none;" width="120" height="12"/>
<text transform="matrix(1 0 0 1 -285.918 -308.8723)" style="font-family:'BradleyHandITCTT-Bold'; font-size:12px;">JAVA SKIILLET</text>
<rect x="-291.9" y="-281.7" style="fill:none;" width="300" height="148"/>
<text transform="matrix(1 0 0 1 -291.918 -273.2005)"><tspan x="0" y="0" style="font-family:'DINAlternate-Bold'; font-size:12px;">JAVA SKILLET</tspan><tspan x="0" y="43.2" style="font-family:'DINAlternate-Bold'; font-size:12px;">javaSkillet</tspan></text>
<g>
	<path class="st0" d="M5.4,1H17c0.2,0.5,0.4,1.1,0.4,1.6c0,0.5-0.1,0.9-0.3,1.1C16.9,3.9,16.6,4,16.2,4l-2,0C14.1,5.8,14,8.8,14,13
		v16.5c0,2-0.3,3.6-0.9,4.8s-1.5,2.2-2.7,2.9s-3.2,1.1-5.9,1.1c-1.8,0-3-0.2-3.6-0.5S0,36.8,0,36c0-1.1,0.3-2.1,1-3
		c2.8,1,4.5,1.3,5.3,1c0.8-0.3,1.2-2.1,1.2-5.3V12.9c0-4.2,0-7.2-0.1-9H4.5C4.2,3.3,4.1,2.7,4.1,2.2c0-0.4,0.1-0.7,0.3-0.9
		S4.9,1,5.4,1z"/>
	<path class="st0" d="M34,0.6c2.4,0,3.7,0.1,4,0.2c0.3,0.2,1.7,3.9,4.2,11.2c2.5,7.3,4.3,12.4,5.4,15.2h2c0.2,0.5,0.4,1,0.4,1.6
		c0,0.5-0.1,0.8-0.3,1s-0.5,0.3-0.9,0.3H37.9c-0.2-0.6-0.4-1.2-0.4-1.8c0-0.4,0.1-0.7,0.3-0.8s0.5-0.3,0.9-0.3h0.9
		c-0.2-1-0.8-3.1-1.6-6.1h-9c-0.8,3-1.3,5-1.5,6.1h2c0.2,0.5,0.4,1,0.4,1.6c0,0.5-0.1,0.8-0.3,1s-0.5,0.3-0.9,0.3h-9.3
		c-0.2-0.6-0.4-1.2-0.4-1.8c0-0.4,0.1-0.7,0.3-0.8c0.2-0.2,0.5-0.3,0.9-0.3h1.2c1-2.7,2.5-7.2,4.6-13.4S29.5,4,30.2,2.6
		S32.1,0.6,34,0.6z M30,17.6H37c-2.2-7.2-3.4-10.7-3.7-10.7S32,10.4,30,17.6z"/>
	<path class="st0" d="M68.4,1h9.3c0.2,0.5,0.4,1.1,0.4,1.6c0,0.5-0.1,0.9-0.3,1.1C77.6,3.9,77.3,4,76.9,4h-1
		c-0.9,2.7-2.4,7.3-4.5,13.7C69.3,24,68,27.8,67.3,28.9s-2.1,1.7-4.2,1.7c-2.3,0-3.5-0.1-3.8-0.2c-0.2-0.2-1.6-3.9-4-11.2
		S51.2,6.8,50.1,4h-1.8c-0.3-0.6-0.4-1.2-0.4-1.8c0-0.4,0.1-0.7,0.3-0.9S48.7,1,49.2,1h10.6c0.2,0.5,0.4,1.1,0.4,1.6
		c0,0.5-0.1,0.9-0.3,1.1C59.7,3.9,59.4,4,59,4h-1c0.3,1.5,1.4,5.3,3.2,11.4s2.9,9.1,3.1,9.1c0.3,0,1.2-3,2.7-9
		c1.5-6,2.4-9.8,2.5-11.5h-2c-0.2-0.6-0.4-1.2-0.4-1.8c0-0.4,0.1-0.7,0.3-0.9C67.6,1.1,67.9,1,68.4,1z"/>
	<path class="st0" d="M90.8,0.6c2.4,0,3.7,0.1,4,0.2C95.2,1,96.6,4.8,99,12.1c2.5,7.3,4.3,12.4,5.4,15.2h2c0.2,0.5,0.4,1,0.4,1.6
		c0,0.5-0.1,0.8-0.3,1s-0.5,0.3-0.9,0.3H94.7c-0.2-0.6-0.4-1.2-0.4-1.8c0-0.4,0.1-0.7,0.3-0.8c0.2-0.2,0.5-0.3,0.9-0.3h0.9
		c-0.2-1-0.8-3.1-1.6-6.1h-9c-0.8,3-1.3,5-1.5,6.1h2c0.2,0.5,0.4,1,0.4,1.6c0,0.5-0.1,0.8-0.3,1c-0.2,0.2-0.5,0.3-0.9,0.3h-9.3
		c-0.2-0.6-0.4-1.2-0.4-1.8c0-0.4,0.1-0.7,0.3-0.8s0.5-0.3,0.9-0.3h1.2c1-2.7,2.5-7.2,4.6-13.4C85,7.7,86.3,4,87,2.6
		S88.9,0.6,90.8,0.6z M86.8,17.6h7.1c-2.2-7.2-3.4-10.7-3.7-10.7S88.8,10.4,86.8,17.6z"/>
	<path class="st0" d="M131.5,0.6c3.7,0,6.1,0.2,7.3,0.6s1.8,1.3,1.8,2.5c0,1.2-0.4,2.2-1.3,3.2c-3.3-1.5-6.1-2.2-8.6-2.2
		c-1.6,0-2.7,0.3-3.3,0.8c-0.6,0.6-0.9,1.4-0.9,2.4c0,1.3,0.4,2.2,1.2,2.8c0.8,0.6,2.4,1.3,4.7,2c3,0.8,5.3,1.8,6.9,3
		c1.6,1.2,2.5,3.1,2.5,5.8c0,3.1-1.1,5.3-3.3,6.8c-2.2,1.5-5.4,2.2-9.7,2.2c-3.1,0-5.3-0.2-6.8-0.7c-1.5-0.5-2.2-1.4-2.2-2.7
		c0-1.2,0.5-2.3,1.5-3.2c3.3,1.6,6.3,2.5,9.1,2.5c1.9,0,3.2-0.2,3.9-0.7s1.1-1.3,1.1-2.4c0-1.3-0.6-2.4-1.7-3.1
		c-1.2-0.7-3-1.5-5.7-2.2c-2.8-0.8-4.8-1.8-6.1-3.1s-1.8-3-1.8-5.1c0-2.9,1-5.1,3-6.7C125.2,1.4,128,0.6,131.5,0.6z"/>
	<path class="st0" d="M165,1.1l9.2,0c0.2,0.5,0.4,1.1,0.4,1.6c0,0.5-0.1,0.9-0.3,1.1c-0.2,0.2-0.5,0.3-0.9,0.3h-1.3l-8.9,8.9
		c3.6,5.8,5.8,9.3,6.8,10.6s1.7,2.3,2.4,2.9c0.7,0.6,1.5,0.9,2.4,0.9c0.3,1.2,0.3,2.1-0.1,2.6c-0.4,0.5-1.5,0.8-3.4,0.8
		c-2.1,0-3.6-0.2-4.4-0.6c-0.8-0.4-1.5-1.3-2.2-2.8s-2.4-5-5.3-10.7l-3.6,4.2c0,2.9,0,5.1,0.1,6.5h2.2c0.2,0.5,0.4,1,0.4,1.6
		c0,0.5-0.1,0.8-0.3,1c-0.2,0.2-0.5,0.3-0.9,0.3h-11.1c-0.3-0.6-0.4-1.2-0.4-1.8c0-0.4,0.1-0.7,0.3-0.8c0.2-0.2,0.5-0.3,0.9-0.3h2
		c0.1-1.8,0.1-6.6,0.1-14.3c0-4.2,0-7.2-0.1-9h-2.8c-0.3-0.6-0.4-1.2-0.4-1.8c0-0.4,0.1-0.7,0.3-0.9c0.2-0.2,0.5-0.3,0.9-0.3h11.1
		c0.2,0.5,0.4,1.1,0.4,1.6c0,0.5-0.1,0.9-0.3,1.1c-0.2,0.2-0.5,0.3-0.9,0.3H156c-0.1,1.8-0.1,5.6-0.1,11.2c1.4-1.4,3-3.1,4.9-5.2
		c1.9-2.1,3.7-4.1,5.2-6h-1.9c-0.3-0.6-0.4-1.2-0.4-1.8c0-0.4,0.1-0.7,0.3-0.9S164.6,1.1,165,1.1z"/>
	<path class="st0" d="M178.8,1h11.7c0.2,0.5,0.4,1.1,0.4,1.6c0,0.5-0.1,0.9-0.3,1.1C190.3,3.9,190,4,189.6,4h-2.1
		c-0.1,1.8-0.1,4.8-0.1,9c0,7.7,0,12.4,0.1,14.3h2.9c0.2,0.5,0.4,1,0.4,1.6c0,0.5-0.1,0.8-0.3,1s-0.5,0.3-0.9,0.3h-11.7
		c-0.3-0.6-0.4-1.2-0.4-1.8c0-0.4,0.1-0.7,0.3-0.8c0.2-0.2,0.5-0.3,0.9-0.3h2c0.1-1.8,0.1-6.6,0.1-14.3c0-4.2-0.1-7.2-0.1-9h-2.8
		c-0.3-0.6-0.4-1.2-0.4-1.8c0-0.4,0.1-0.7,0.3-0.9C178,1.1,178.3,1,178.8,1z"/>
	<path class="st0" d="M204.3,26.6h0.5c4.8,0,8.5-0.6,11.3-1.7c0.6,0.9,0.9,2,0.9,3c0,0.8-0.3,1.3-0.9,1.7c-0.6,0.3-1.8,0.5-3.5,0.5
		l-17.7,0c-0.3-0.6-0.4-1.2-0.4-1.8c0-0.4,0.1-0.7,0.3-0.8c0.2-0.2,0.5-0.3,0.9-0.3h1.6c0.1-1.8,0.1-6.6,0.1-14.3c0-4.2,0-7.2-0.1-9
		H195c-0.3-0.6-0.4-1.2-0.4-1.8c0-0.4,0.1-0.7,0.3-0.9s0.5-0.3,0.9-0.3h11.2c0.2,0.5,0.4,1.1,0.4,1.6c0,0.5-0.1,0.9-0.3,1.1
		c-0.2,0.2-0.5,0.3-0.9,0.3h-2.1c-0.1,1.8-0.1,4.8-0.1,9C204.2,20.7,204.2,25.2,204.3,26.6z"/>
	<path class="st0" d="M228.9,26.6h0.5c4.8,0,8.5-0.6,11.3-1.7c0.6,0.9,0.9,2,0.9,3c0,0.8-0.3,1.3-0.9,1.7c-0.6,0.3-1.8,0.5-3.5,0.5
		l-17.7,0c-0.3-0.6-0.4-1.2-0.4-1.8c0-0.4,0.1-0.7,0.3-0.8c0.2-0.2,0.5-0.3,0.9-0.3h1.6c0.1-1.8,0.1-6.6,0.1-14.3c0-4.2,0-7.2-0.1-9
		h-2.4c-0.3-0.6-0.4-1.2-0.4-1.8c0-0.4,0.1-0.7,0.3-0.9s0.5-0.3,0.9-0.3h11.2c0.2,0.5,0.4,1.1,0.4,1.6c0,0.5-0.1,0.9-0.3,1.1
		C231.7,3.9,231.4,4,231,4h-2.1c-0.1,1.8-0.1,4.8-0.1,9C228.8,20.7,228.9,25.2,228.9,26.6z"/>
	<path class="st0" d="M245.1,1h19.4c0.9,0,1.6,0.1,2,0.4s0.6,0.8,0.6,1.7c0,1.1-0.3,2.1-1,3.2c-3-1.2-6.8-1.8-11.5-1.8h-1
		c-0.1,1.4-0.1,4.2-0.1,8.5h10.7c0.2,0.8,0.4,1.5,0.4,2.3c0,0.5-0.1,0.8-0.3,1s-0.5,0.2-1,0.2h-9.9c0,5.5,0.1,8.8,0.1,9.9h1.8
		c4.8,0,8.6-0.6,11.4-1.7c0.6,0.9,0.9,2,0.9,3c0,0.8-0.3,1.3-0.9,1.7s-1.8,0.5-3.5,0.5l-19,0c-0.3-0.6-0.4-1.2-0.4-1.8
		c0-0.4,0.1-0.7,0.3-0.8c0.2-0.2,0.5-0.3,0.9-0.3h1.6c0.1-1.8,0.1-6.6,0.1-14.3c0-4.2,0-7.2-0.1-9h-2.4c-0.3-0.6-0.4-1.2-0.4-1.8
		c0-0.4,0.1-0.7,0.3-0.9S244.7,1,245.1,1z"/>
	<path class="st0" d="M279.3,27.2c0.1-1.8,0.1-6.6,0.1-14.3c0-4.2,0-6.9-0.1-8.3C274.4,4.9,271.6,5,271,5c-0.7,0-1.2-0.1-1.5-0.4
		c-0.3-0.3-0.5-0.7-0.5-1.5c0-1,0.2-2,0.7-3.2c2.9,0.7,6.6,1,11,1h14.4c0.7,0,1.2,0.1,1.5,0.3s0.5,0.7,0.5,1.4
		c0,1.3-0.4,2.5-1.1,3.7c-2.7-1.2-5.8-1.8-9.3-1.8h-0.5C286.1,6,286,8.8,286,13c0,7.7,0,12.4,0.1,14.3h3.3c0.3,0.5,0.4,1,0.4,1.6
		c0,0.5-0.1,0.8-0.3,1s-0.5,0.3-0.9,0.3H276c-0.3-0.6-0.4-1.2-0.4-1.8c0-0.4,0.1-0.7,0.3-0.8s0.5-0.3,0.9-0.3H279.3z"/>
</g>
</svg>
